<svg xmlns="http://www.w3.org/2000/svg" xmlns:xlink="http://www.w3.org/1999/xlink" version="1.1" x="0px" y="0px" viewBox="0 0 100 125" enable-background="new 0 0 100 100" xml:space="preserve">
<g>
<path fill="#000000" d="M33.269,21.787c1.167-1.167,3.234-1.357,4.595-0.424l10.073,6.914c1.36,0.934,3.597,2.448,4.969,3.364   l24.999,16.698c1.372,0.916,1.372,2.416,0,3.332L52.905,68.359c-1.372,0.916-3.608,2.43-4.969,3.363l-10.073,6.915   c-1.36,0.934-3.428,0.742-4.595-0.424L21.722,66.666c-1.167-1.166-1.167-3.076,0-4.242l10.297-10.298   c1.167-1.167,1.167-3.076,0-4.243L21.721,37.577c-1.167-1.167-1.166-3.077,0-4.244L33.269,21.787z"/>
</g>
</svg>
