<?xml version="1.0" encoding="UTF-8" standalone="no"?>
<svg
   xmlns:dc="http://purl.org/dc/elements/1.1/"
   xmlns:cc="http://creativecommons.org/ns#"
   xmlns:rdf="http://www.w3.org/1999/02/22-rdf-syntax-ns#"
   xmlns:svg="http://www.w3.org/2000/svg"
   xmlns="http://www.w3.org/2000/svg"
   xmlns:sodipodi="http://sodipodi.sourceforge.net/DTD/sodipodi-0.dtd"
   xmlns:inkscape="http://www.inkscape.org/namespaces/inkscape"
   width="100"
   height="4.8em"
   x="0"
   y="885.8"
   id="svg2"
   version="1.1"
   inkscape:version="0.48.5 r10040"
   sodipodi:docname="call_number_display_with_arrow_2.svg">
  <metadata
     id="metadata20">
    <rdf:RDF>
      <cc:Work
         rdf:about="">
        <dc:format>image/svg+xml</dc:format>
        <dc:type
           rdf:resource="http://purl.org/dc/dcmitype/StillImage" />
      </cc:Work>
    </rdf:RDF>
  </metadata>
  <defs
     id="defs18" />
  <sodipodi:namedview
     pagecolor="#ffffff"
     bordercolor="#666666"
     borderopacity="1"
     objecttolerance="10"
     gridtolerance="10"
     guidetolerance="10"
     inkscape:pageopacity="0"
     inkscape:pageshadow="2"
     inkscape:window-width="1245"
     inkscape:window-height="718"
     id="namedview16"
     showgrid="false"
     inkscape:zoom="3.5881183"
     inkscape:cx="-7.3910406"
     inkscape:cy="1005.7732"
     inkscape:window-x="0"
     inkscape:window-y="515"
     inkscape:window-maximized="0"
     inkscape:current-layer="svg2" />
  <rect
     width="60"
     height="4.8em"
     stroke="firebrick"
     stroke-width="3"
     stroke-linecap="butt"
     fill="#eee"
     id="rect4" />
  <text
     font-family="monospace"
     id="text6">
    <tspan
       x=".5em"
       dy="1.2em"
       id="tspan8">QL696</tspan>
  </text>
  <g
     transform="translate(58.482791,41.290899)"
     id="g3110">
    <path
       inkscape:connector-curvature="0"
       d="M 32.135,16.817 H 0.5 c -0.276,0 -0.5,-0.224 -0.5,-0.5 0,-0.276 0.224,-0.5 0.5,-0.5 h 31.635 c 0.276,0 0.5,0.224 0.5,0.5 0,0.276 -0.224,0.5 -0.5,0.5 z"
       id="path3112" />
    <path
       inkscape:connector-curvature="0"
       d="m 19.598,29.353 c -0.128,0 -0.256,-0.049 -0.354,-0.146 -0.195,-0.195 -0.195,-0.512 0,-0.707 L 31.428,16.316 19.244,4.136 c -0.195,-0.195 -0.195,-0.512 0,-0.707 0.195,-0.195 0.512,-0.195 0.707,0 l 12.537,12.533 c 0.094,0.094 0.146,0.221 0.146,0.354 0,0.133 -0.053,0.26 -0.146,0.354 L 19.951,29.206 c -0.097,0.098 -0.225,0.147 -0.353,0.147 z"
       id="path3114" />
  </g>
  <g
     transform="translate(61.857181,41.093831)"
     id="g3116" />
  <g
     transform="translate(61.857181,41.093831)"
     id="g3118" />
  <g
     transform="translate(61.857181,41.093831)"
     id="g3120" />
  <g
     transform="translate(61.857181,41.093831)"
     id="g3122" />
  <g
     transform="translate(61.857181,41.093831)"
     id="g3124" />
  <g
     transform="translate(61.857181,41.093831)"
     id="g3126" />
  <g
     transform="translate(61.857181,41.093831)"
     id="g3128" />
  <g
     transform="translate(61.857181,41.093831)"
     id="g3130" />
  <g
     transform="translate(61.857181,41.093831)"
     id="g3132" />
  <g
     transform="translate(61.857181,41.093831)"
     id="g3134" />
  <g
     transform="translate(61.857181,41.093831)"
     id="g3136" />
  <g
     transform="translate(61.857181,41.093831)"
     id="g3138" />
  <g
     transform="translate(61.857181,41.093831)"
     id="g3140" />
  <g
     transform="translate(61.857181,41.093831)"
     id="g3142" />
  <g
     transform="translate(61.857181,41.093831)"
     id="g3144" />
</svg>
