<svg xmlns="http://www.w3.org/2000/svg" xmlns:xlink="http://www.w3.org/1999/xlink" version="1.1" x="0px" y="0px" viewBox="0 0 100 125" enable-background="new 0 0 100 100" xml:space="preserve">
<g>
<path fill="#000000" d="M66.731,73.879c-1.167,1.166-3.234,1.357-4.595,0.424l-10.073-6.915c-1.36-0.934-3.596-2.447-4.968-3.363   l-25-16.698c-1.372-0.916-1.372-2.416,0-3.332l24.999-16.689c1.373-0.916,3.608-2.43,4.969-3.363l10.073-6.915   c1.36-0.934,3.428-0.743,4.595,0.424l11.547,11.547c1.167,1.167,1.167,3.076,0,4.243L67.981,43.539   c-1.167,1.167-1.167,3.077-0.001,4.244l10.299,10.306c1.166,1.167,1.166,3.077-0.001,4.243L66.731,73.879z"/>
</g>
</svg>
